<svg xmlns="http://www.w3.org/2000/svg" width="1000" height="438" viewBox="0 0 1000 438" font-family="monospace" font-size="13">
<rect x="0" y="0" width="1000" height="438" fill="#ffffff"/>
<text x="20" y="18" font-size="15" font-weight="bold" fill="#1a202c">topology · bus view</text>
<text x="20" y="36" fill="#718096">schema 1.17 · shape 2fa360a6be62c813 · verdict clean</text>
<path d="M 148 149 C 218 149, 218 93, 288 93" fill="none" stroke="#2f855a" stroke-width="1.5"/>
<path d="M 288 93 l -7 -4 l 0 8 z" fill="#2f855a"/>
<text x="162" y="127" font-size="11" fill="#2f855a">publish</text>
<path d="M 148 289 C 218 289, 218 163, 288 163" fill="none" stroke="#2f855a" stroke-width="1.5"/>
<path d="M 288 163 l -7 -4 l 0 8 z" fill="#2f855a"/>
<text x="162" y="246" font-size="11" fill="#2f855a">publish</text>
<path d="M 288 93 C 218 93, 218 219, 148 219" fill="none" stroke="#6b46c1" stroke-width="1.5" stroke-dasharray="6,4"/>
<path d="M 148 219 l 7 -4 l 0 8 z" fill="#6b46c1"/>
<text x="154" y="175" font-size="11" fill="#6b46c1">subscribe</text>
<path d="M 288 163 C 218 163, 218 149, 148 149" fill="none" stroke="#6b46c1" stroke-width="1.5" stroke-dasharray="6,4"/>
<path d="M 148 149 l 7 -4 l 0 8 z" fill="#6b46c1"/>
<text x="154" y="148" font-size="11" fill="#6b46c1">subscribe</text>
<path d="M 288 163 C 218 163, 218 359, 148 359" fill="none" stroke="#6b46c1" stroke-width="1.5" stroke-dasharray="6,4"/>
<path d="M 148 359 l 7 -4 l 0 8 z" fill="#6b46c1"/>
<text x="154" y="294" font-size="11" fill="#6b46c1">subscribe</text>
<rect x="20" y="70" width="128" height="28" rx="6" fill="#f7fafc" stroke="#4a5568" stroke-width="1.5"/>
<text x="30" y="84" font-weight="bold" fill="#1a202c">App</text>
<rect x="20" y="122" width="128" height="46" rx="6" fill="#f7fafc" stroke="#4a5568" stroke-width="1.5"/>
<text x="30" y="136" font-weight="bold" fill="#1a202c">Monitor</text>
<text x="40" y="153" fill="#2d3748">on_reading</text>
<rect x="20" y="192" width="128" height="46" rx="6" fill="#f7fafc" stroke="#4a5568" stroke-width="1.5"/>
<text x="30" y="206" font-weight="bold" fill="#1a202c">Pager</text>
<text x="40" y="223" fill="#2d3748">on_alert</text>
<rect x="20" y="262" width="128" height="46" rx="6" fill="#f7fafc" stroke="#4a5568" stroke-width="1.5"/>
<text x="30" y="276" font-weight="bold" fill="#1a202c">Sampler</text>
<text x="40" y="293" fill="#2d3748">sample</text>
<rect x="20" y="332" width="128" height="46" rx="6" fill="#f7fafc" stroke="#4a5568" stroke-width="1.5"/>
<text x="30" y="346" font-weight="bold" fill="#1a202c">Store</text>
<text x="40" y="363" fill="#2d3748">on_reading</text>
<rect x="288" y="70" width="276" height="46" rx="14" fill="#ebf8ff" stroke="#2b6cb0" stroke-width="1.5"/>
<text x="298" y="84" font-weight="bold" fill="#2b6cb0">Alerts</text>
<text x="298" y="100" font-size="11" fill="#4a5568">ops.alert · payload 1c5dd4e4</text>
<rect x="288" y="140" width="276" height="46" rx="14" fill="#ebf8ff" stroke="#2b6cb0" stroke-width="1.5"/>
<text x="298" y="154" font-weight="bold" fill="#2b6cb0">Readings</text>
<text x="298" y="170" font-size="11" fill="#4a5568">sense.reading · payload 3bd4bac6</text>
</svg>
